<?xml version="1.0" encoding="utf-8"?>
<!-- Generator: Adobe Illustrator 15.0.0, SVG Export Plug-In . SVG Version: 6.00 Build 0)  -->
<!DOCTYPE svg PUBLIC "-//W3C//DTD SVG 1.1//EN" "http://www.w3.org/Graphics/SVG/1.1/DTD/svg11.dtd">
<svg version="1.1" xmlns="http://www.w3.org/2000/svg" xmlns:xlink="http://www.w3.org/1999/xlink" x="0px" y="0px"
	 width="841.89px" height="857px" viewBox="0 0 841.89 857" enable-background="new 0 0 841.89 857" xml:space="preserve">
<g id="rays">
	<linearGradient id="SVGID_1_" gradientUnits="userSpaceOnUse" x1="408.6055" y1="283.5923" x2="433.2842" y2="283.5923">
		<stop  offset="0" style="stop-color:#FBB040"/>
		<stop  offset="0.5134" style="stop-color:#FAD138"/>
		<stop  offset="1" style="stop-color:#F9ED32"/>
	</linearGradient>
	<path fill="url(#SVGID_1_)" d="M433.284,462.416c0,6.444-5.524,11.667-12.339,11.667l0,0c-6.815,0-12.34-5.223-12.34-11.667
		V104.768c0-6.442,5.524-11.667,12.34-11.667l0,0c6.814,0,12.339,5.224,12.339,11.667V462.416z"/>
	
		<linearGradient id="SVGID_2_" gradientUnits="userSpaceOnUse" x1="79.3281" y1="273.6406" x2="102.6592" y2="273.6406" gradientTransform="matrix(4.489659e-11 -1 1 4.489659e-11 147.3042 374.5859)">
		<stop  offset="0" style="stop-color:#FBB040"/>
		<stop  offset="0.5134" style="stop-color:#FAD138"/>
		<stop  offset="1" style="stop-color:#F9ED32"/>
	</linearGradient>
	<path fill="url(#SVGID_2_)" d="M610.088,271.927c6.816,0,12.34,5.223,12.34,11.665l0,0c0,6.444-5.523,11.666-12.34,11.666H231.803
		c-6.814,0-12.34-5.222-12.34-11.666l0,0c0-6.442,5.525-11.665,12.34-11.665H610.088z"/>
	
		<linearGradient id="SVGID_3_" gradientUnits="userSpaceOnUse" x1="257.1226" y1="346.6777" x2="291.4155" y2="346.6777" gradientTransform="matrix(0.766 -0.6428 0.6428 0.766 -11.998 194.3188)">
		<stop  offset="0" style="stop-color:#FBB040"/>
		<stop  offset="0.5134" style="stop-color:#FAD138"/>
		<stop  offset="1" style="stop-color:#F9ED32"/>
	</linearGradient>
	<path fill="url(#SVGID_3_)" d="M551.974,413.079c4.383,4.938,3.703,12.296-1.518,16.437l0,0
		c-5.223,4.143-13.006,3.499-17.385-1.438L289.914,154.104c-4.381-4.935-3.701-12.294,1.521-16.437l0,0
		c5.22-4.141,13.003-3.497,17.383,1.439L551.974,413.079z"/>
	
		<linearGradient id="SVGID_4_" gradientUnits="userSpaceOnUse" x1="10.8784" y1="126.9658" x2="44.9385" y2="126.9658" gradientTransform="matrix(-0.6428 -0.766 0.766 -0.6428 341.6226 386.584)">
		<stop  offset="0" style="stop-color:#FBB040"/>
		<stop  offset="0.5134" style="stop-color:#FAD138"/>
		<stop  offset="1" style="stop-color:#F9ED32"/>
	</linearGradient>
	<path fill="url(#SVGID_4_)" d="M557.903,159.709c5.223-4.142,13.006-3.498,17.385,1.438l0,0c4.381,4.936,3.701,12.295-1.52,16.437
		L283.985,407.475c-5.22,4.144-13.003,3.499-17.385-1.438l0,0c-4.38-4.936-3.699-12.295,1.521-16.436L557.903,159.709z"/>
</g>
<g id="sun">
	<linearGradient id="SVGID_5_" gradientUnits="userSpaceOnUse" x1="363.2759" y1="156.5625" x2="478.6151" y2="415.6187">
		<stop  offset="0.3313" style="stop-color:#F9ED32"/>
		<stop  offset="0.4853" style="stop-color:#FAD438"/>
		<stop  offset="0.6574" style="stop-color:#FAC03C"/>
		<stop  offset="0.8295" style="stop-color:#FBB43F"/>
		<stop  offset="1" style="stop-color:#FBB040"/>
	</linearGradient>
	<ellipse fill="url(#SVGID_5_)" cx="420.945" cy="286.091" rx="142.012" ry="141.7"/>
</g>
<g id="hands">
	<g>
		<polygon fill="#FFFFFF" points="365.57,669.183 310.32,682.683 292.07,676.933 288.352,670.959 278.204,641.487 268.544,617.929 
			238.57,602.683 218.041,591.607 196.361,576.308 176.765,553.593 145.82,518.683 153.986,514.082 165.57,512.489 163.769,493.64 
			156.153,475.683 152.426,465.135 143.822,451.016 147.32,437.183 158.756,435.608 168.57,430.183 185.153,438.683 
			195.236,435.933 203.039,443.989 221.242,465.685 217.82,460.016 227.798,459.928 238.432,473.608 271.07,517.933 
			295.168,530.433 324.109,552.805 332.922,572.67 338.82,587.183 341.32,605.933 345.986,624.433 372.486,658.933 		"/>
		<path fill="#3A3A3A" d="M286.03,560.565c-13.131-15.53-36.058-13.292-54.292-15.916c-4.662-0.671-9.249-1.735-13.57-3.636
			c-6.268-2.759-11.063-8.472-15.598-13.385c-8.338-9.037-17.34-14.385-29.332-17.297c-8.511-2.067-23.359-3.084-28.602,5.837
			c-3.813,6.489,6.794,14.163,10.554,17.737c10.528,10.009,17.966,22.859,27.408,33.817c7.979,9.261,17.256,17.312,27.492,23.981
			c8.586,5.595,17.854,10,27.483,13.473c9.984,3.6,19.112,6.633,26.843,14.286c13.301,13.172,16.144,34.289,20.616,51.583
			c0.806,3.116,5.479,1.325,4.678-1.767c-5.248-20.295-8.873-42.894-25.864-57.086c-9.436-7.883-21.625-10.194-32.676-14.889
			c-11.708-4.974-22.472-11.844-32.109-20.119c-10.742-9.222-18.897-20.511-27.405-31.709c-3.891-5.121-7.99-10.111-12.52-14.686
			c-3.215-3.246-7.483-6.118-9.66-10.233c-2.81-5.317,9.596-6.445,12.459-6.554c7.392-0.279,14.991,2.147,21.69,5.029
			c11.658,5.012,17.863,16.785,27.984,23.908c10.022,7.055,23.572,7.261,35.316,8.301c12.183,1.079,26.576,2.227,35.038,12.232
			C284.029,565.92,288.118,563.034,286.03,560.565z"/>
		<path fill="#3A3A3A" d="M168.461,511.999c0.702-21.895-13.42-38.029-20.681-57.467c-1.882-5.036-3.477-16.317,4.11-17.867
			c3.813-0.78,7.501,3.791,9.57,6.309c7.868,9.577,12.948,21.6,17.885,32.856c5.109,11.653,10.357,22.492,16.723,33.582
			c1.606,2.8,5.619-0.192,4.034-2.954c-3.865-6.734-7.904-13.366-10.98-20.505c-2.434-5.648-4.806-11.323-7.338-16.93
			c-5.236-11.601-10.965-24.864-20.583-33.569c-8.96-8.106-20.293-0.941-20.119,10.636c0.144,9.558,5.492,18.177,9.872,26.349
			c6.438,12.01,13.004,24.872,12.554,38.859C163.406,514.48,168.357,515.226,168.461,511.999z"/>
		<path fill="#3A3A3A" d="M163.834,437.721c0.63-2.173,1.644-6.229,4.53-6.33c2.679-0.093,5.248,2.222,7.139,3.833
			c4.744,4.039,8.6,9.545,11.837,14.822c11.722,19.113,18.26,41.381,27.306,61.792c1.308,2.951,5.834,0.828,4.53-2.116
			c-9.93-22.407-16.86-47.332-31.089-67.539c-4.106-5.832-9.237-12.203-15.972-15.06c-6.838-2.899-11.278,3.017-12.98,8.891
			C158.24,439.097,162.935,440.822,163.834,437.721z"/>
		<path fill="#3A3A3A" d="M185.393,446.938l0.104,0.195c1.435-0.85,2.868-1.697,4.305-2.548c-0.936-1.276-1.922-4.328-1.327-5.827
			c0.797-2.013,5.907-0.168,7.201,0.201c5.61,1.601,8.741,6.316,11.526,11.101c11.6,19.923,20.613,41.365,33.074,60.771
			c1.74,2.713,6.045,0.166,4.304-2.546c-8.01-12.476-14.34-25.875-21.049-39.067c-3.338-6.563-6.849-13.035-10.697-19.314
			c-2.905-4.742-5.433-10.086-10.275-13.225c-4.33-2.805-15.833-6.977-18.649,0.123c-1.179,2.973-0.313,7.729,1.588,10.332
			c1.889,2.587,5.785,0.354,4.305-2.548l-0.105-0.195C188.163,441.542,183.871,444.108,185.393,446.938z"/>
		<path fill="#3A3A3A" d="M219.283,461.443c3.085-4.503,13.917,7.752,15.913,9.971c6.622,7.361,11.086,16.72,16.576,24.93
			c6.541,9.779,13.809,18.881,23.357,25.863c9.114,6.664,19.642,11.034,29.215,16.95c9.244,5.714,16.569,13.595,22.677,22.503
			c7.548,11.01,10.042,23.085,11.785,36.083c1.612,12.013,3.519,23.588,9.761,34.165c6.323,10.718,15.419,19.501,23.832,28.547
			c2.184,2.349,6.07-0.801,3.872-3.163c-8.916-9.587-18.451-18.861-24.851-30.412c-6.725-12.138-6.905-26.702-9.18-40.081
			c-4.036-23.743-19.781-43.462-40.604-54.979c-11.056-6.116-22.555-11.552-31.712-20.467c-9.681-9.421-16.727-21.728-23.815-33.105
			c-3.93-6.307-22.278-32.288-30.906-19.697C213.384,461.204,217.455,464.11,219.283,461.443z"/>
		<path fill="#3A3A3A" d="M284.969,670.85c6.72,16.641,26.024,14.548,40.584,11.81c17.676-3.325,40.132-6.456,50.967-22.571
			c1.802-2.68-2.583-5.088-4.369-2.43c-9.393,13.969-29.539,16.425-44.745,19.553c-11.815,2.431-31.783,6.74-37.629-7.733
			C288.582,666.521,283.762,667.861,284.969,670.85z"/>
		<path fill="#3A3A3A" d="M322.072,653.832c2.033,4.323,4.066,8.646,6.1,12.97c0.686,1.458,2.829,0.168,2.147-1.279
			c-2.033-4.324-4.066-8.646-6.1-12.97C323.534,651.095,321.391,652.385,322.072,653.832z"/>
		<path fill="#3A3A3A" d="M325.368,652.233c3.026,6.435,6.053,12.869,9.079,19.304c0.686,1.458,2.876,0.252,2.192-1.203
			c-3.026-6.435-6.053-12.869-9.079-19.304C326.874,649.572,324.684,650.778,325.368,652.233z"/>
		<path fill="#3A3A3A" d="M296.433,578.064c2.565,2.968,4.397,6.387,5.674,10.087c0.522,1.514,2.952,0.919,2.427-0.604
			c-1.428-4.14-3.454-7.924-6.325-11.245C297.153,575.084,295.382,576.85,296.433,578.064z"/>
		<path fill="#3A3A3A" d="M307.171,596.425c1.59,0,1.912-2.482,0.299-2.482C305.879,593.942,305.558,596.425,307.171,596.425z"/>
		<polygon fill="#FFFFFF" points="476.322,669.183 531.572,682.683 549.822,676.933 553.541,670.959 563.688,641.487 
			573.348,617.929 603.321,602.683 623.851,591.607 645.53,576.308 665.127,553.593 696.071,518.683 687.905,514.082 
			676.321,512.489 678.124,493.64 685.738,475.683 689.466,465.135 698.069,451.016 694.571,437.183 683.136,435.608 
			673.321,430.183 656.738,438.683 646.655,435.933 638.853,443.989 620.649,465.685 624.071,460.016 614.095,459.928 
			603.46,473.608 570.822,517.933 546.725,530.433 517.783,552.805 508.971,572.67 503.072,587.183 500.572,605.933 
			495.906,624.433 469.406,658.933 		"/>
		<path fill="#3A3A3A" d="M555.861,560.565c13.133-15.53,36.058-13.292,54.292-15.916c4.662-0.671,9.25-1.735,13.57-3.636
			c6.268-2.759,11.064-8.472,15.598-13.385c8.338-9.037,17.34-14.385,29.332-17.297c8.512-2.067,23.359-3.084,28.602,5.837
			c3.813,6.489-6.794,14.163-10.554,17.737c-10.528,10.009-17.966,22.859-27.408,33.817c-7.979,9.261-17.256,17.312-27.492,23.981
			c-8.585,5.595-17.854,10-27.483,13.473c-9.984,3.6-19.112,6.633-26.843,14.286c-13.301,13.172-16.143,34.289-20.615,51.583
			c-0.807,3.116-5.479,1.325-4.678-1.767c5.248-20.295,8.873-42.894,25.863-57.086c9.436-7.883,21.625-10.194,32.677-14.889
			c11.707-4.974,22.471-11.844,32.108-20.119c10.743-9.222,18.897-20.511,27.405-31.709c3.891-5.121,7.99-10.111,12.52-14.686
			c3.215-3.246,7.484-6.118,9.66-10.233c2.811-5.317-9.596-6.445-12.459-6.554c-7.391-0.279-14.991,2.147-21.69,5.029
			c-11.658,5.012-17.863,16.785-27.983,23.908c-10.023,7.055-23.573,7.261-35.317,8.301c-12.182,1.079-26.576,2.227-35.037,12.232
			C557.863,565.92,553.773,563.034,555.861,560.565z"/>
		<path fill="#3A3A3A" d="M673.431,511.999c-0.701-21.895,13.42-38.029,20.681-57.467c1.882-5.036,3.478-16.317-4.11-17.867
			c-3.813-0.78-7.501,3.791-9.57,6.309c-7.868,9.577-12.948,21.6-17.885,32.856c-5.109,11.653-10.357,22.492-16.723,33.582
			c-1.606,2.8-5.619-0.192-4.033-2.954c3.865-6.734,7.904-13.366,10.979-20.505c2.435-5.648,4.806-11.323,7.338-16.93
			c5.236-11.601,10.965-24.864,20.583-33.569c8.96-8.106,20.293-0.941,20.119,10.636c-0.144,9.558-5.492,18.177-9.872,26.349
			c-6.437,12.01-13.003,24.872-12.554,38.859C678.485,514.48,673.534,515.226,673.431,511.999z"/>
		<path fill="#3A3A3A" d="M678.058,437.721c-0.63-2.173-1.643-6.229-4.529-6.33c-2.68-0.093-5.249,2.222-7.14,3.833
			c-4.743,4.039-8.6,9.545-11.837,14.822c-11.722,19.113-18.26,41.381-27.306,61.792c-1.308,2.951-5.834,0.828-4.53-2.116
			c9.93-22.407,16.86-47.332,31.089-67.539c4.106-5.832,9.237-12.203,15.972-15.06c6.838-2.899,11.279,3.017,12.98,8.891
			C683.651,439.097,678.957,440.822,678.058,437.721z"/>
		<path fill="#3A3A3A" d="M656.499,446.938l-0.104,0.195c-1.435-0.85-2.868-1.697-4.305-2.548c0.936-1.276,1.922-4.328,1.327-5.827
			c-0.797-2.013-5.907-0.168-7.201,0.201c-5.61,1.601-8.741,6.316-11.526,11.101c-11.6,19.923-20.613,41.365-33.074,60.771
			c-1.74,2.713-6.045,0.166-4.303-2.546c8.01-12.476,14.34-25.875,21.049-39.067c3.338-6.563,6.848-13.035,10.697-19.314
			c2.904-4.742,5.432-10.086,10.275-13.225c4.329-2.805,15.832-6.977,18.648,0.123c1.179,2.973,0.314,7.729-1.588,10.332
			c-1.889,2.587-5.785,0.354-4.305-2.548l0.105-0.195C653.729,441.542,658.021,444.108,656.499,446.938z"/>
		<path fill="#3A3A3A" d="M622.608,461.443c-3.085-4.503-13.916,7.752-15.912,9.971c-6.623,7.361-11.087,16.72-16.577,24.93
			c-6.539,9.779-13.809,18.881-23.355,25.863c-9.115,6.664-19.643,11.034-29.215,16.95c-9.246,5.714-16.57,13.595-22.678,22.503
			c-7.547,11.01-10.041,23.085-11.785,36.083c-1.613,12.013-3.518,23.588-9.76,34.165c-6.324,10.718-15.42,19.501-23.834,28.547
			c-2.182,2.349-6.07-0.801-3.871-3.163c8.916-9.587,18.451-18.861,24.85-30.412c6.727-12.138,6.906-26.702,9.18-40.081
			c4.037-23.743,19.783-43.462,40.605-54.979c11.055-6.116,22.555-11.552,31.713-20.467c9.68-9.421,16.725-21.728,23.813-33.105
			c3.93-6.307,22.279-32.288,30.906-19.697C628.508,461.204,624.437,464.11,622.608,461.443z"/>
		<path fill="#3A3A3A" d="M556.924,670.85c-6.721,16.641-26.023,14.548-40.584,11.81c-17.676-3.325-40.133-6.456-50.967-22.571
			c-1.801-2.68,2.584-5.088,4.369-2.43c9.393,13.969,29.539,16.425,44.744,19.553c11.816,2.431,31.783,6.74,37.631-7.733
			C553.311,666.521,558.131,667.861,556.924,670.85z"/>
		<path fill="#3A3A3A" d="M519.82,653.832c-2.033,4.323-4.066,8.646-6.1,12.97c-0.686,1.458-2.828,0.168-2.148-1.279
			c2.033-4.324,4.066-8.646,6.102-12.97C518.359,651.095,520.502,652.385,519.82,653.832z"/>
		<path fill="#3A3A3A" d="M516.525,652.233c-3.027,6.435-6.053,12.869-9.08,19.304c-0.686,1.458-2.877,0.252-2.191-1.203
			c3.025-6.435,6.053-12.869,9.078-19.304C515.018,649.572,517.209,650.778,516.525,652.233z"/>
		<path fill="#3A3A3A" d="M545.461,578.064c-2.566,2.968-4.398,6.387-5.676,10.087c-0.521,1.514-2.951,0.919-2.426-0.604
			c1.428-4.14,3.455-7.924,6.326-11.245C544.738,575.084,546.51,576.85,545.461,578.064z"/>
		<path fill="#3A3A3A" d="M534.723,596.425c-1.592,0-1.912-2.482-0.299-2.482C536.014,593.942,536.336,596.425,534.723,596.425z"/>
	</g>
</g>
</svg>
